<svg xmlns="http://www.w3.org/2000/svg" viewBox="0 0 192 192" width="192" height="192">
  <rect width="192" height="192" rx="32" fill="#0A0E1A"/>
  <circle cx="96" cy="70" r="16" fill="#FFD700" opacity="0.9"/>
  <circle cx="96" cy="130" r="24" fill="#00D4AA" opacity="0.9"/>
  <circle cx="96" cy="130" r="16" fill="#0A0E1A"/>
  <circle cx="96" cy="130" r="8" fill="#00D4AA"/>
  <line x1="96" y1="86" x2="96" y2="106" stroke="#00D4AA" stroke-width="3" opacity="0.6"/>
  <line x1="60" y1="100" x2="76" y2="114" stroke="#FFD700" stroke-width="2" opacity="0.5"/>
  <line x1="132" y1="100" x2="116" y2="114" stroke="#FFD700" stroke-width="2" opacity="0.5"/>
  <circle cx="50" cy="100" r="12" fill="#1a3a6a" stroke="#4488cc" stroke-width="2"/>
  <circle cx="142" cy="100" r="12" fill="#1a3a6a" stroke="#4488cc" stroke-width="2"/>
  <circle cx="60" cy="160" r="10" fill="#0f1a2e" stroke="#00D4AA" stroke-width="2"/>
  <circle cx="96" cy="170" r="10" fill="#0f1a2e" stroke="#00D4AA" stroke-width="2"/>
  <circle cx="132" cy="160" r="10" fill="#0f1a2e" stroke="#00D4AA" stroke-width="2"/>
  <line x1="50" y1="112" x2="60" y2="150" stroke="#00D4AA" stroke-width="2" opacity="0.4"/>
  <line x1="96" y1="154" x2="96" y2="160" stroke="#00D4AA" stroke-width="2" opacity="0.4"/>
  <line x1="142" y1="112" x2="132" y2="150" stroke="#00D4AA" stroke-width="2" opacity="0.4"/>
  <path d="M60 55 Q 78 40 96 55 Q 114 70 132 55" stroke="#FFD700" stroke-width="2.5" fill="none" opacity="0.5"/>
</svg>
