<svg xmlns="http://www.w3.org/2000/svg" viewBox="0 0 192 192" width="192" height="192">
  <rect width="192" height="192" rx="32" fill="#0A0E1A"/>
  <circle cx="96" cy="70" r="28" fill="#FFD700" opacity="0.9"/>
  <rect x="40" y="108" width="50" height="36" rx="4" fill="#1a3a6a" transform="rotate(-20 65 126)"/>
  <line x1="50" y1="112" x2="50" y2="140" stroke="#4488cc" stroke-width="1.5" transform="rotate(-20 65 126)"/>
  <line x1="65" y1="108" x2="65" y2="140" stroke="#4488cc" stroke-width="1.5" transform="rotate(-20 65 126)"/>
  <line x1="40" y1="124" x2="90" y2="108" stroke="#4488cc" stroke-width="1.5" transform="rotate(-20 65 126)"/>
  <rect x="100" y="108" width="50" height="36" rx="4" fill="#1a3a6a" transform="rotate(20 125 126)"/>
  <line x1="110" y1="112" x2="110" y2="140" stroke="#4488cc" stroke-width="1.5" transform="rotate(20 125 126)"/>
  <line x1="125" y1="108" x2="125" y2="140" stroke="#4488cc" stroke-width="1.5" transform="rotate(20 125 126)"/>
  <rect x="80" y="140" width="32" height="20" rx="4" fill="#0f1a2e" stroke="#00D4AA" stroke-width="2"/>
  <rect x="88" y="136" width="16" height="4" rx="2" fill="#00D4AA"/>
  <rect x="82" y="144" width="10" height="10" rx="2" fill="#00D4AA" opacity="0.8"/>
  <rect x="100" y="144" width="10" height="10" rx="2" fill="#00D4AA" opacity="0.5"/>
  <path d="M20 95 Q 50 80 80 95" stroke="#00D4AA" stroke-width="3" fill="none" opacity="0.6"/>
  <path d="M112 95 Q 142 80 172 95" stroke="#00D4AA" stroke-width="3" fill="none" opacity="0.6"/>
</svg>