<svg xmlns="http://www.w3.org/2000/svg" viewBox="0 0 512 512" width="512" height="512">
  <rect width="512" height="512" rx="96" fill="#0A0E1A"/>
  <circle cx="256" cy="180" r="80" fill="#FFD700" opacity="0.9"/>
  <circle cx="256" cy="180" r="60" fill="#FFEC80" opacity="0.6"/>
  <rect x="60" y="280" width="140" height="100" rx="8" fill="#1a3a6a" transform="rotate(-20 130 330)"/>
  <line x1="80" y1="290" x2="80" y2="370" stroke="#4488cc" stroke-width="3" transform="rotate(-20 130 330)"/>
  <line x1="110" y1="285" x2="110" y2="375" stroke="#4488cc" stroke-width="3" transform="rotate(-20 130 330)"/>
  <line x1="60" y1="325" x2="200" y2="285" stroke="#4488cc" stroke-width="3" transform="rotate(-20 130 330)"/>
  <rect x="310" y="280" width="140" height="100" rx="8" fill="#1a3a6a" transform="rotate(20 380 330)"/>
  <line x1="330" y1="290" x2="330" y2="370" stroke="#4488cc" stroke-width="3" transform="rotate(20 380 330)"/>
  <line x1="360" y1="285" x2="360" y2="375" stroke="#4488cc" stroke-width="3" transform="rotate(20 380 330)"/>
  <line x1="310" y1="325" x2="450" y2="285" stroke="#4488cc" stroke-width="3" transform="rotate(20 380 330)"/>
  <rect x="210" y="370" width="92" height="56" rx="10" fill="#0f1a2e" stroke="#00D4AA" stroke-width="5"/>
  <rect x="230" y="358" width="52" height="14" rx="7" fill="#00D4AA"/>
  <rect x="216" y="378" width="28" height="32" rx="6" fill="#00D4AA" opacity="0.85"/>
  <rect x="268" y="378" width="28" height="32" rx="6" fill="#00D4AA" opacity="0.5"/>
  <path d="M30 240 Q 120 210 210 240" stroke="#00D4AA" stroke-width="7" fill="none" opacity="0.5"/>
  <path d="M300 240 Q 390 210 480 240" stroke="#00D4AA" stroke-width="7" fill="none" opacity="0.5"/>
  <path d="M80 190 Q 130 170 180 190" stroke="#FFD700" stroke-width="5" fill="none" opacity="0.4"/>
  <path d="M330 190 Q 380 170 430 190" stroke="#FFD700" stroke-width="5" fill="none" opacity="0.4"/>
</svg>